<svg width="217" height="39" viewBox="0 0 217 39" fill="none" xmlns="http://www.w3.org/2000/svg">
<path d="M0.642046 38V3.09091H15.0625C17.6761 3.09091 19.9318 3.60227 21.8295 4.625C23.7386 5.63636 25.2102 7.05113 26.2443 8.86932C27.2784 10.6761 27.7955 12.7784 27.7955 15.1761C27.7955 17.5852 27.267 19.6932 26.2102 21.5C25.1648 23.2955 23.6705 24.6875 21.7273 25.6761C19.7841 26.6648 17.4773 27.1591 14.8068 27.1591H5.90909V20.5114H13.2386C14.5114 20.5114 15.5739 20.2898 16.4261 19.8466C17.2898 19.4034 17.9432 18.7841 18.3864 17.9886C18.8295 17.1818 19.0511 16.2443 19.0511 15.1761C19.0511 14.0966 18.8295 13.1648 18.3864 12.3807C17.9432 11.5852 17.2898 10.9716 16.4261 10.5398C15.5625 10.108 14.5 9.89205 13.2386 9.89205H9.07955V38H0.642046ZM43.1016 38.4943C40.3629 38.4943 37.9993 37.9545 36.0106 36.875C34.0334 35.7841 32.5106 34.233 31.4425 32.2216C30.3856 30.1989 29.8572 27.7955 29.8572 25.0114C29.8572 22.3068 30.3913 19.9432 31.4595 17.9205C32.5277 15.8864 34.0334 14.3068 35.9766 13.1818C37.9197 12.0455 40.2095 11.4773 42.8459 11.4773C44.7095 11.4773 46.4141 11.767 47.9595 12.3466C49.505 12.9261 50.8402 13.7841 51.9652 14.9205C53.0902 16.0568 53.9652 17.4602 54.5902 19.1307C55.2152 20.7898 55.5277 22.6932 55.5277 24.8409V26.9205H32.772V22.0795H47.772C47.7606 21.1932 47.5504 20.4034 47.1413 19.7102C46.7322 19.017 46.1697 18.4773 45.4538 18.0909C44.7493 17.6932 43.9368 17.4943 43.0163 17.4943C42.0845 17.4943 41.2493 17.7045 40.5106 18.125C39.772 18.5341 39.1868 19.0966 38.755 19.8125C38.3231 20.517 38.0959 21.3182 38.0731 22.2159V27.142C38.0731 28.2102 38.2834 29.1477 38.7038 29.9545C39.1243 30.75 39.7209 31.3693 40.4936 31.8125C41.2663 32.2557 42.1868 32.4773 43.255 32.4773C43.9936 32.4773 44.6641 32.375 45.2663 32.1705C45.8686 31.9659 46.3856 31.6648 46.8175 31.267C47.2493 30.8693 47.5731 30.3807 47.7891 29.8011L55.4425 30.0227C55.1243 31.7386 54.4254 33.233 53.3459 34.5057C52.2777 35.767 50.8743 36.75 49.1356 37.4545C47.397 38.1477 45.3856 38.4943 43.1016 38.4943ZM73.9872 11.8182V17.9545H57.4702V11.8182H73.9872ZM60.9304 5.54545H69.2656V29.767C69.2656 30.2784 69.3452 30.6932 69.5042 31.0114C69.6747 31.3182 69.919 31.5398 70.2372 31.6761C70.5554 31.8011 70.9361 31.8636 71.3792 31.8636C71.6974 31.8636 72.0327 31.8352 72.3849 31.7784C72.7486 31.7102 73.0213 31.6534 73.2031 31.608L74.4645 37.625C74.0668 37.7386 73.5043 37.8807 72.777 38.0511C72.0611 38.2216 71.2031 38.3295 70.2031 38.375C68.2486 38.4659 66.5724 38.2386 65.1747 37.6932C63.7883 37.1364 62.7258 36.2727 61.9872 35.1023C61.2599 33.9318 60.9077 32.4602 60.9304 30.6875V5.54545ZM119.088 15.7386H110.565C110.452 14.8636 110.219 14.0739 109.866 13.3693C109.514 12.6648 109.048 12.0625 108.469 11.5625C107.889 11.0625 107.202 10.6818 106.406 10.4205C105.622 10.1477 104.753 10.0114 103.798 10.0114C102.105 10.0114 100.645 10.4261 99.4176 11.2557C98.2017 12.0852 97.2642 13.2841 96.6051 14.8523C95.9574 16.4205 95.6335 18.3182 95.6335 20.5455C95.6335 22.8636 95.963 24.8068 96.6221 26.375C97.2926 27.9318 98.2301 29.108 99.4346 29.9034C100.651 30.6875 102.088 31.0795 103.747 31.0795C104.679 31.0795 105.526 30.9602 106.287 30.7216C107.06 30.483 107.736 30.1364 108.315 29.6818C108.906 29.2159 109.389 28.6534 109.764 27.9943C110.151 27.3239 110.418 26.5682 110.565 25.7273L119.088 25.7784C118.94 27.3239 118.491 28.8466 117.741 30.3466C117.003 31.8466 115.986 33.2159 114.69 34.4545C113.395 35.6818 111.815 36.6591 109.952 37.3864C108.099 38.1136 105.974 38.4773 103.577 38.4773C100.418 38.4773 97.588 37.7841 95.088 36.3977C92.5994 35 90.6335 32.9659 89.1903 30.2955C87.7471 27.625 87.0255 24.375 87.0255 20.5455C87.0255 16.7045 87.7585 13.4489 89.2244 10.7784C90.6903 8.10795 92.6733 6.07955 95.1733 4.69318C97.6733 3.30682 100.474 2.61364 103.577 2.61364C105.69 2.61364 107.645 2.90909 109.44 3.5C111.236 4.07954 112.815 4.93182 114.179 6.05682C115.543 7.17045 116.651 8.53977 117.503 10.1648C118.355 11.7898 118.883 13.6477 119.088 15.7386ZM131.675 3.09091V38H123.34V3.09091H131.675ZM136.405 38V11.8182H144.74V38H136.405ZM140.581 8.76705C139.41 8.76705 138.405 8.38068 137.564 7.60795C136.723 6.82386 136.303 5.88068 136.303 4.77841C136.303 3.6875 136.723 2.75568 137.564 1.98295C138.405 1.19886 139.41 0.806816 140.581 0.806816C141.763 0.806816 142.768 1.19886 143.598 1.98295C144.439 2.75568 144.859 3.6875 144.859 4.77841C144.859 5.88068 144.439 6.82386 143.598 7.60795C142.768 8.38068 141.763 8.76705 140.581 8.76705ZM157.805 23.0682V38H149.469V11.8182H157.396V16.625H157.685C158.265 15.0227 159.254 13.767 160.651 12.858C162.049 11.9375 163.714 11.4773 165.646 11.4773C167.486 11.4773 169.083 11.892 170.435 12.7216C171.799 13.5398 172.856 14.6875 173.606 16.1648C174.367 17.6307 174.742 19.3466 174.731 21.3125V38H166.396V22.9489C166.407 21.4943 166.038 20.358 165.288 19.5398C164.549 18.7216 163.521 18.3125 162.202 18.3125C161.327 18.3125 160.555 18.5057 159.884 18.892C159.225 19.267 158.714 19.8068 158.35 20.5114C157.998 21.2159 157.816 22.0682 157.805 23.0682ZM179.315 38V11.8182H187.651V38H179.315ZM183.491 8.76705C182.321 8.76705 181.315 8.38068 180.474 7.60795C179.633 6.82386 179.213 5.88068 179.213 4.77841C179.213 3.6875 179.633 2.75568 180.474 1.98295C181.315 1.19886 182.321 0.806816 183.491 0.806816C184.673 0.806816 185.679 1.19886 186.508 1.98295C187.349 2.75568 187.77 3.6875 187.77 4.77841C187.77 5.88068 187.349 6.82386 186.508 7.60795C185.679 8.38068 184.673 8.76705 183.491 8.76705ZM204.602 38.4943C201.84 38.4943 199.471 37.9261 197.494 36.7898C195.528 35.6534 194.016 34.0739 192.959 32.0511C191.903 30.017 191.374 27.6648 191.374 24.9943C191.374 22.3125 191.903 19.9602 192.959 17.9375C194.028 15.9034 195.545 14.3182 197.511 13.1818C199.488 12.0455 201.846 11.4773 204.584 11.4773C207.005 11.4773 209.113 11.9148 210.908 12.7898C212.715 13.6648 214.124 14.9034 215.136 16.5057C216.158 18.0966 216.698 19.9659 216.755 22.1136H208.965C208.806 20.7727 208.352 19.7216 207.602 18.9602C206.863 18.1989 205.897 17.8182 204.704 17.8182C203.738 17.8182 202.891 18.0909 202.164 18.6364C201.437 19.1705 200.869 19.9659 200.459 21.0227C200.062 22.0682 199.863 23.3636 199.863 24.9091C199.863 26.4545 200.062 27.7614 200.459 28.8295C200.869 29.8864 201.437 30.6875 202.164 31.233C202.891 31.767 203.738 32.0341 204.704 32.0341C205.477 32.0341 206.158 31.8693 206.749 31.5398C207.352 31.2102 207.846 30.7273 208.232 30.0909C208.619 29.4432 208.863 28.6591 208.965 27.7386H216.755C216.675 29.8977 216.136 31.7841 215.136 33.3977C214.147 35.0114 212.755 36.267 210.959 37.1648C209.175 38.0511 207.056 38.4943 204.602 38.4943Z" fill="#F59E0B"/>
</svg>
